<?xml version="1.0" standalone="no"?>
<!DOCTYPE svg PUBLIC "-//W3C//DTD SVG 20010904//EN"
 "http://www.w3.org/TR/2001/REC-SVG-20010904/DTD/svg10.dtd">
<svg version="1.0" xmlns="http://www.w3.org/2000/svg"
 width="96.000000pt" height="96.000000pt" viewBox="0 0 96.000000 96.000000"
 preserveAspectRatio="xMidYMid meet">

<g transform="translate(0.000000,96.000000) scale(0.100000,-0.100000)"
fill="#000000" stroke="none">
<path d="M596 677 c3 -10 9 -15 12 -12 3 3 0 11 -7 18 -10 9 -11 8 -5 -6z"/>
<path d="M258 593 c7 -3 16 -2 19 1 4 3 -2 6 -13 5 -11 0 -14 -3 -6 -6z"/>
<path d="M670 568 c-14 -5 -67 -18 -118 -29 -81 -16 -221 -57 -447 -128 l-59
-19 39 -5 c22 -4 66 -9 98 -13 l59 -6 -7 -48 c-11 -78 -8 -132 10 -174 16 -38
16 -87 -1 -130 -5 -14 10 -16 130 -16 112 0 138 3 142 15 8 19 48 19 64 0 10
-12 44 -15 185 -15 l173 0 -29 82 c-16 46 -45 115 -63 153 -55 114 -55 112 4
120 39 5 50 11 50 25 0 30 -47 103 -98 153 -52 49 -80 57 -132 35z m-66 -106
c3 -5 -4 -26 -15 -46 -21 -40 -18 -60 5 -35 8 8 23 29 33 48 19 35 43 52 43
31 0 -7 -10 -20 -22 -31 -20 -16 -21 -20 -8 -28 12 -8 12 -13 2 -23 -6 -6 -12
-18 -12 -25 0 -19 31 -16 46 5 13 16 13 16 14 -1 0 -10 4 -15 10 -12 5 3 12
-6 16 -21 19 -76 -104 -284 -169 -284 -48 0 -74 34 -107 140 -17 55 -34 116
-37 135 -5 31 -3 35 16 35 11 0 21 5 21 12 0 6 6 4 13 -6 12 -16 16 -17 35 -5
30 19 10 39 -39 39 -39 0 -55 14 -21 18 9 1 38 5 64 8 30 4 45 10 42 18 -3 7
8 17 23 23 36 14 41 15 47 5z"/>
<path d="M515 141 c-19 -8 -19 -8 0 -17 26 -13 97 -3 103 14 4 14 -69 16 -103
3z"/>
<path d="M92 518 c-8 -8 -9 -15 -1 -25 16 -19 36 -16 42 6 8 31 -17 43 -41 19z"/>
</g>
</svg>
